HIERARCHY
ROOT hip
{
  OFFSET 0 0 0
  CHANNELS 6 Xposition Yposition Zposition Zrotation Yrotation Xrotation
  JOINT abdomen
  {
    OFFSET 0 20.6881 -0.73152
    CHANNELS 3 Zrotation Xrotation Yrotation
    JOINT chest
    {
      OFFSET 0 11.7043 -0.48768
      CHANNELS 3 Zrotation Xrotation Yrotation
      JOINT neck
      {
        OFFSET 0 22.1894 -2.19456
        CHANNELS 3 Zrotation Xrotation Yrotation
        JOINT head
        {
          OFFSET -0.24384 7.07133 1.2192
          CHANNELS 3 Zrotation Xrotation Yrotation
          JOINT leftEye
          {
            OFFSET 4.14528 8.04674 8.04672
            CHANNELS 3 Zrotation Xrotation Yrotation
            End Site
            {
              OFFSET 1 0 0
            }
          }
          JOINT rightEye
          {
            OFFSET -3.6576 8.04674 8.04672
            CHANNELS 3 Zrotation Xrotation Yrotation
            End Site
            {
              OFFSET 1 0 0
            }
          }
        }
      }
      JOINT rCollar
      {
        OFFSET -2.68224 19.2634 -4.8768
        CHANNELS 3 Zrotation Xrotation Yrotation
        JOINT rShldr
        {
          OFFSET -8.77824 -1.95073 1.46304
          CHANNELS 3 Zrotation Xrotation Yrotation
          JOINT rForeArm
          {
            OFFSET -28.1742 -1.7115 0.48768
            CHANNELS 3 Zrotation Xrotation Yrotation
            JOINT rHand
            {
              OFFSET -22.5879 0.773209 7.07136
              CHANNELS 3 Zrotation Xrotation Yrotation
              JOINT rThumb1
              {
                OFFSET -1.2192 -0.487915 3.41376
                CHANNELS 3 Zrotation Xrotation Yrotation
                JOINT rThumb2
                {
                  OFFSET -3.37035 -0.52449 3.41376
                  CHANNELS 3 Zrotation Xrotation Yrotation
                  End Site
                  {
                    OFFSET -1.78271 -1.18214 1.43049
                  }
                }
              }
              JOINT rIndex1
              {
                OFFSET -7.75947 0.938293 5.60832
                CHANNELS 3 Zrotation Xrotation Yrotation
                JOINT rIndex2
                {
                  OFFSET -2.54057 -0.884171 1.56538
                  CHANNELS 3 Zrotation Xrotation Yrotation
                  End Site
                  {
                    OFFSET -1.62519 -0.234802 1.16502
                  }
                }
              }
              JOINT rMid1
              {
                OFFSET -8.24714 1.18213 3.41376
                CHANNELS 3 Zrotation Xrotation Yrotation
                JOINT rMid2
                {
                  OFFSET -3.10165 -0.590103 1.0647
                  CHANNELS 3 Zrotation Xrotation Yrotation
                  End Site
                  {
                    OFFSET -2.48547 -0.328903 0.83742
                  }
                }
              }
              JOINT rRing1
              {
                OFFSET -8.82822 0.546677 1.51678
                CHANNELS 3 Zrotation Xrotation Yrotation
                JOINT rRing2
                {
                  OFFSET -2.60934 -0.819778 -0.0198488
                  CHANNELS 3 Zrotation Xrotation Yrotation
                  End Site
                  {
                    OFFSET -2.33842 -0.294052 0.168128
                  }
                }
              }
              JOINT rPinky1
              {
                OFFSET -8.27202 -0.0477905 -0.4584
                CHANNELS 3 Zrotation Xrotation Yrotation
                JOINT rPinky2
                {
                  OFFSET -1.82734 -0.647385 -0.700984
                  CHANNELS 3 Zrotation Xrotation Yrotation
                  End Site
                  {
                    OFFSET -1.69225 -0.51767 -0.607171
                  }
                }
              }
            }
          }
        }
      }
      JOINT lCollar
      {
        OFFSET 2.68224 19.2634 -4.8768
        CHANNELS 3 Zrotation Xrotation Yrotation
        JOINT lShldr
        {
          OFFSET 8.77824 -1.95073 1.46304
          CHANNELS 3 Zrotation Xrotation Yrotation
          JOINT lForeArm
          {
            OFFSET 28.1742 -1.7115 0.48768
            CHANNELS 3 Zrotation Xrotation Yrotation
            JOINT lHand
            {
              OFFSET 22.5879 0.773209 7.07136
              CHANNELS 3 Zrotation Xrotation Yrotation
              JOINT lThumb1
              {
                OFFSET 1.2192 -0.487915 3.41376
                CHANNELS 3 Zrotation Xrotation Yrotation
                JOINT lThumb2
                {
                  OFFSET 3.37035 -0.52449 3.41376
                  CHANNELS 3 Zrotation Xrotation Yrotation
                  End Site
                  {
                    OFFSET 1.78271 -1.18214 1.43049
                  }
                }
              }
              JOINT lIndex1
              {
                OFFSET 7.75947 0.938293 5.60832
                CHANNELS 3 Zrotation Xrotation Yrotation
                JOINT lIndex2
                {
                  OFFSET 2.54057 -0.884171 1.56538
                  CHANNELS 3 Zrotation Xrotation Yrotation
                  End Site
                  {
                    OFFSET 1.62519 -0.234802 1.16502
                  }
                }
              }
              JOINT lMid1
              {
                OFFSET 8.24714 1.18213 3.41376
                CHANNELS 3 Zrotation Xrotation Yrotation
                JOINT lMid2
                {
                  OFFSET 3.10165 -0.590103 1.0647
                  CHANNELS 3 Zrotation Xrotation Yrotation
                  End Site
                  {
                    OFFSET 2.48547 -0.328903 0.83742
                  }
                }
              }
              JOINT lRing1
              {
                OFFSET 8.82822 0.546677 1.51678
                CHANNELS 3 Zrotation Xrotation Yrotation
                JOINT lRing2
                {
                  OFFSET 2.60934 -0.819778 -0.0198488
                  CHANNELS 3 Zrotation Xrotation Yrotation
                  End Site
                  {
                    OFFSET 2.33842 -0.294052 0.168128
                  }
                }
              }
              JOINT lPinky1
              {
                OFFSET 8.27202 -0.0477905 -0.4584
                CHANNELS 3 Zrotation Xrotation Yrotation
                JOINT lPinky2
                {
                  OFFSET 1.82734 -0.647385 -0.700984
                  CHANNELS 3 Zrotation Xrotation Yrotation
                  End Site
                  {
                    OFFSET 1.69225 -0.51767 -0.607171
                  }
                }
              }
            }
          }
        }
      }
    }
  }
  JOINT rButtock
  {
    OFFSET -8.77824 4.35084 1.2192
    CHANNELS 3 Zrotation Xrotation Yrotation
    JOINT rThigh
    {
      OFFSET 0 -1.70687 -2.19456
      CHANNELS 3 Zrotation Xrotation Yrotation
      JOINT rShin
      {
        OFFSET 0 -36.8199 0.73152
        CHANNELS 3 Zrotation Xrotation Yrotation
        JOINT rFoot
        {
          OFFSET 0.73152 -45.1104 -5.12064
          CHANNELS 3 Zrotation Xrotation Yrotation
          End Site
          {
            OFFSET -1.1221 -3.69964 12.103
          }
        }
      }
    }
  }
  JOINT lButtock
  {
    OFFSET 8.77824 4.35084 1.2192
    CHANNELS 3 Zrotation Xrotation Yrotation
    JOINT lThigh
    {
      OFFSET 0 -1.70687 -2.19456
      CHANNELS 3 Zrotation Xrotation Yrotation
      JOINT lShin
      {
        OFFSET 0 -36.8199 0.73152
        CHANNELS 3 Zrotation Xrotation Yrotation
        JOINT lFoot
        {
          OFFSET -0.73152 -45.1104 -5.12064
          CHANNELS 3 Zrotation Xrotation Yrotation
          End Site
          {
            OFFSET 1.1221 -3.69964 12.103
          }
        }
      }
    }
  }
}
MOTION
Frames:	4
Frame Time:	0.03333
-0.5683000201970929 68.60830081648345 -0.128999995265459 -8.091399192810059 8.105899810791016 -2.076995372772217 3.128730058670044 24.326801300048828 7.751948833465576 2.832629680633545 -12.683098793029785 2.6226298809051514 -5.290919303894043 16.419002532958984 -7.544399261474609 4.303850173950195 -36.929405212402344 -13.884499549865723 -0.0 0.0 -0.0 -0.0 0.0 -0.0 2.1877798001229774e-15 -5.53640995353509e-14 -1.2754799657861e-13 49.520198822021484 -19.679101943969727 65.54000854492188 -10.850299835205078 -4.673499584197998 19.406999588012695 -0.7635749578475952 -23.977500915527344 -3.5846500396728516 9.70203917205481e-10 -1.7796200069142287e-08 -1.1910099573242405e-09 1.6985498563215629e-09 -3.081349930766919e-08 -2.0430599434462238e-09 9.70203917205481e-10 -1.7796200069142287e-08 -1.1910200603537646e-09 7.730909824371338 5.474879741668701 0.4173140823841095 9.702019188040367e-10 -1.7796200069142287e-08 -1.1910099573242405e-09 2.9055399894714355 0.9651829600334167 0.10290199518203735 9.702080250306722e-10 -1.7796200069142287e-08 -1.1910099573242405e-09 10.27859878540039 0.73180091381073 0.025912316516041756 9.70196922800426e-10 -1.7796200069142287e-08 -1.1910000763393214e-09 2.221669912338257 -0.733487069606781 -0.208919957280159 2.132799738549648e-15 -5.5359396808427747e-14 -1.2771299859673513e-13 40.84569549560547 23.204504013061523 -134.31199645996094 28.419397354125977 -36.76329803466797 -78.26280212402344 0.14894899725914001 -11.383100509643555 1.611449956893921 -6.638620209109547e-10 1.1993700477219704e-10 -1.0822700513557493e-09 -1.1261199750478568e-09 2.0762198904566986e-10 -1.875020139152639e-09 -6.638620209109547e-10 1.1993299409152058e-10 -1.0822700513557493e-09 -7.730909824371338 5.474879741668701 -0.4173140823841095 -6.638620209109547e-10 1.1993099569007626e-10 -1.0822700513557493e-09 -2.9055399894714355 0.9651829600334167 -0.10290199518203735 -6.638660177138433e-10 1.1993299409152058e-10 -1.0822700513557493e-09 -10.27859878540039 0.73180091381073 -0.025912316516041756 -6.638570249073439e-10 1.1993399329224275e-10 -1.0822700513557493e-09 -2.221669912338257 -0.733487069606781 0.208919957280159 -2.0321699480147914e-16 0.0 -3.8825099822884138e-19 -38.277000427246094 -54.971492767333984 -18.748401641845703 -8.411931037902832 83.43540954589844 8.732430458068848 -1.1788599491119385 16.409597396850586 5.255139350891113 2.0321699480147914e-16 0.0 3.8825099822884138e-19 11.99220085144043 -46.17219924926758 14.547200202941895 3.2140698432922363 77.00238037109375 -4.5588603019714355 10.084299087524414 -20.67490005493164 20.08119773864746
-1.187900043785418 68.32660332454462 -0.2059999928013589 -8.393099784851074 7.893600940704346 -1.993011474609375 3.6693899631500244 24.24679946899414 8.227130889892578 2.7540597915649414 -12.746500015258789 2.780780076980591 -5.254129409790039 16.3330020904541 -7.58384895324707 4.492569923400879 -36.677703857421875 -13.896100044250488 -0.0 0.0 -0.0 -0.0 0.0 -0.0 1.837189932520425e-13 -2.274099962160103e-13 5.411910001629043e-14 49.56959533691406 -16.79669952392578 68.09889221191406 -10.89069938659668 -4.7004499435424805 19.48270034790039 -0.826632022857666 -24.907499313354492 -3.741729497909546 -9.038869652755466e-10 -2.866939752266262e-08 -1.8353198960596728e-09 -1.531109905528183e-09 -4.9724896200586954e-08 -3.1867599670221125e-09 -9.038899628777131e-10 -2.866939752266262e-08 -1.8353298880668945e-09 7.730909824371338 5.474879741668701 0.4173140823841095 -9.038879644762687e-10 -2.866939752266262e-08 -1.8353198960596728e-09 2.9055399894714355 0.9651829600334167 0.10290199518203735 -9.038840231845313e-10 -2.866939752266262e-08 -1.8353198960596728e-09 10.27859878540039 0.73180091381073 0.025912316516041756 -9.038970127939194e-10 -2.866939752266262e-08 -1.8353198960596728e-09 2.221669912338257 -0.733487069606781 -0.208919957280159 1.8364700222778946e-13 -2.274099962160103e-13 5.397000188878294e-14 40.0453987121582 22.900100708007812 -133.97499084472656 28.430500030517578 -35.268096923828125 -75.78929901123047 0.011523200199007988 -3.0633704662323 0.43094298243522644 -6.409929809159109e-10 3.366270040494612e-10 1.453469899992399e-09 -1.1107998965087518e-09 5.831770066855313e-10 2.509609853262873e-09 -6.40998032430673e-10 3.3662400644729473e-10 1.4534798919996206e-09 -7.730909824371338 5.474879741668701 -0.4173140823841095 -6.409970332299508e-10 3.3662098108955263e-10 1.453469899992399e-09 -2.9055399894714355 0.9651829600334167 -0.10290199518203735 -6.410019737224104e-10 3.3662400644729473e-10 1.4534798919996206e-09 -10.27859878540039 0.73180091381073 -0.025912316516041756 -6.409889841130223e-10 3.3662600484873906e-10 1.4534798919996206e-09 -2.221669912338257 -0.733487069606781 0.208919957280159 -2.0321699480147914e-16 0.0 -3.8825099822884138e-19 -36.758296966552734 -52.492401123046875 -16.882497787475586 -4.925179958343506 79.63541412353516 5.278350830078125 -0.9807119369506836 13.17129898071289 6.093480110168457 2.0321699480147914e-16 0.0 3.8825099822884138e-19 14.037900924682617 -46.8618049621582 15.94589900970459 3.5414700508117676 77.84191131591797 -4.820009708404541 10.099099159240723 -20.87580108642578 19.771400451660156
-1.8134000701561643 68.01779681179 -0.29799999288910595 -8.693399429321289 7.756100177764893 -2.010005474090576 4.120770454406738 24.2455997467041 8.601940155029297 2.6396801471710205 -12.890100479125977 2.902019739151001 -5.3085808753967285 16.283300399780273 -7.625490188598633 4.835040092468262 -36.4076042175293 -13.865499496459961 -0.0 0.0 -0.0 -0.0 0.0 -0.0 1.8400100778963313e-13 -2.4550099366610345e-13 3.647389600633724e-14 49.974796295166016 -14.167197227478027 70.65140533447266 -10.883798599243164 -4.695379734039307 19.470598220825195 -0.9389299750328064 -26.4158992767334 -4.00285005569458 -8.391239370020287e-10 -2.5695300109873642e-08 -2.363309992148288e-09 -1.4065599795998196e-09 -4.3495397505921574e-08 -4.0982399696076754e-09 -8.391239370020287e-10 -2.5695300109873642e-08 -2.3633197621109048e-09 7.730909824371338 5.474879741668701 0.4173140823841095 -8.391249917139021e-10 -2.5695300109873642e-08 -2.363309992148288e-09 2.9055399894714355 0.9651829600334167 0.10290199518203735 -8.391209393998622e-10 -2.5695300109873642e-08 -2.363309992148288e-09 10.27859878540039 0.73180091381073 0.025912316516041756 -8.391310424293863e-10 -2.5695300109873642e-08 -2.363309992148288e-09 2.221669912338257 -0.733487069606781 -0.208919957280159 1.8401099600214715e-13 -2.4549600633611e-13 3.625019799309917e-14 38.841094970703125 22.929401397705078 -133.3459930419922 28.374298095703125 -33.68989944458008 -73.13489532470703 0.012508198618888855 6.4529805183410645 -0.9052030444145203 -1.994979875741265e-10 4.5652101543502965e-10 1.0525499360980461e-09 -3.498009937263902e-10 7.918229405490251e-10 1.8140499102869967e-09 -1.9952900442987698e-10 4.5652101543502965e-10 1.0525700311347919e-09 -7.730909824371338 5.474879741668701 -0.4173140823841095 -1.99527991351367e-10 4.565200162343075e-10 1.0525600391275702e-09 -2.9055399894714355 0.9651829600334167 -0.10290199518203735 -1.9953298735497782e-10 4.565219868801762e-10 1.0525600391275702e-09 -10.27859878540039 0.73180091381073 -0.025912316516041756 -1.9949498997196002e-10 4.565200162343075e-10 1.0525499360980461e-09 -2.221669912338257 -0.733487069606781 0.208919957280159 -2.0321699480147914e-16 0.0 -3.8825099822884138e-19 -35.688602447509766 -50.215797424316406 -15.429400444030762 -3.560739517211914 76.5848159790039 3.9469804763793945 -0.7993809580802917 10.741499900817871 7.40061092376709 2.0321699480147914e-16 0.0 3.8825099822884138e-19 15.866398811340332 -47.49869918823242 17.09819984436035 3.929539680480957 78.7169189453125 -5.149449348449707 10.135501861572266 -20.977598190307617 19.598899841308594
-2.5158000758141736 67.65540063480746 -0.3759999928184979 -8.85469913482666 7.711101055145264 -1.9839956760406494 4.490040302276611 24.23200035095215 8.910809516906738 2.513400077819824 -13.020200729370117 2.9972403049468994 -5.375649929046631 16.239099502563477 -7.675880432128906 5.172919750213623 -36.21160125732422 -13.854998588562012 -0.0 0.0 -0.0 -0.0 0.0 -0.0 1.2638800867426775e-13 -1.8924698776384002e-13 -2.5295300657693018e-14 50.07639694213867 -11.68819808959961 72.99119567871094 -10.940597534179688 -4.732950210571289 19.577598571777344 -1.0719600915908813 -28.035200119018555 -4.291900634765625 -3.427969852420887e-10 -2.0617999751948446e-08 -2.158579981426101e-09 -5.503810185381042e-10 -3.383699720416189e-08 -3.7368401706316945e-09 -3.4279298843920003e-10 -2.0618099227931452e-08 -2.158579981426101e-09 7.730909824371338 5.474879741668701 0.4173140823841095 -3.427969852420887e-10 -2.0617999751948446e-08 -2.158579981426101e-09 2.9055399894714355 0.9651829600334167 0.10290199518203735 -3.427920169940535e-10 -2.0617999751948446e-08 -2.158579981426101e-09 10.27859878540039 0.73180091381073 0.025912316516041756 -3.428000105998308e-10 -2.0617999751948446e-08 -2.1585699894188792e-09 2.221669912338257 -0.733487069606781 -0.208919957280159 1.26473999459073e-13 -1.892379888858084e-13 -2.5593496912708e-14 37.29389953613281 23.196401596069336 -132.4949951171875 28.21489715576172 -32.101402282714844 -70.61699676513672 0.3153740167617798 15.777400016784668 -2.2757701873779297 5.8142497760815814e-11 4.95437968428547e-10 4.2508097736204675e-11 9.941220069364931e-11 8.594339684364627e-10 7.070850155388442e-11 5.8091195048737276e-11 4.954410215418648e-10 4.253670332632353e-11 -7.730909824371338 5.474879741668701 -0.4173140823841095 5.809279793322908e-11 4.954410215418648e-10 4.253039934121183e-11 -2.9055399894714355 0.9651829600334167 -0.10290199518203735 5.808819744657079e-11 4.954410215418648e-10 4.252959789896593e-11 -10.27859878540039 0.73180091381073 -0.025912316516041756 5.814529413505909e-11 4.95437968428547e-10 4.2511296566294376e-11 -2.221669912338257 -0.733487069606781 0.208919957280159 -2.0321699480147914e-16 0.0 -3.8825099822884138e-19 -34.91779708862305 -48.14099884033203 -14.307296752929688 -2.8488399982452393 74.13662719726562 3.26485013961792 -0.5725169777870178 8.704720497131348 9.008549690246582 2.0321699480147914e-16 0.0 3.8825099822884138e-19 17.517000198364258 -48.15510177612305 18.05080223083496 4.377279758453369 79.5875015258789 -5.543519973754883 10.179299354553223 -20.995906829833984 19.515199661254883
